#!OML:ASF F:\VICON\USERDATA\INSTALL\rory3\rory3.ASF
:FULLY-SPECIFIED
:DEGREES
4217
root -2.79834 17.4204 0.781967 12.604 48.1803 -6.31476
lowerback 10.8872 8.48978 1.13283
upperback 2.92872 11.2964 -2.9697
thorax -2.11743 5.65231 -5.04444
lowerneck -11.8248 -13.6314 -18.0728
upperneck 20.3537 -16.1242 5.81517
head 10.4619 -8.22183 2.62672
rclavicle -2.60905e-014 1.58034e-014
rhumerus 53.7012 13.6621 -52.4411
rradius 32.7433
rwrist 36.3516
rhand -28.4792 1.35659
rfingers 7.12502
rthumb -1.84871 -28.6151
lclavicle -2.60905e-014 1.58034e-014
lhumerus -45.3705 30.1268 33.5247
lradius 28.2565
lwrist 6.22557
lhand -26.3435 30.4131
lfingers 7.12502
lthumb 0.213972 60.3928
rfemur -19.6068 -16.5938 22.0005
rtibia 32.2409
rfoot -34.5346 -21.2985
rtoes 6.84132
lfemur -45.2334 -19.371 -3.56981
ltibia 37.6559
lfoot -10.1591 -22.3641
ltoes -7.14941
4218
root -2.78979 17.423 0.782811 12.8347 48.3998 -6.30047
lowerback 10.9955 8.56018 1.26161
upperback 2.99993 11.4023 -3.07237
thorax -2.04509 5.71011 -5.23633
lowerneck -12.0466 -13.6502 -17.8919
upperneck 20.6213 -16.1054 5.63163
head 10.5644 -8.21328 2.52402
rclavicle -9.07452e-014 3.0911e-014
rhumerus 53.9566 13.4986 -52.3725
rradius 32.8031
rwrist 36.4663
rhand -28.444 1.28732
rfingers 7.12502
rthumb -1.81475 -28.6847
lclavicle -9.07452e-014 3.0911e-014
lhumerus -45.3896 30.0265 33.5601
lradius 28.2748
lwrist 6.41888
lhand -26.3613 30.5311
lfingers 7.12502
lthumb 0.196779 60.5107
rfemur -19.7767 -16.6947 22.086
rtibia 32.1808
rfoot -34.6647 -21.3074
rtoes 6.89124
lfemur -45.4556 -19.2983 -3.57164
ltibia 37.5515
lfoot -10.0115 -22.5227
ltoes -7.03996
4219
root -2.77977 17.426 0.782675 13.1384 48.6134 -6.22894
lowerback 11.032 8.59296 1.31482
upperback 3.07533 11.4514 -3.147
thorax -1.95489 5.73982 -5.3423
lowerneck -12.1745 -13.5559 -17.8745
upperneck 20.7661 -15.951 5.62238
head 10.6195 -8.13911 2.53704
rclavicle -9.30312e-014 5.74488e-014
rhumerus 54.3155 13.4393 -52.4139
rradius 32.7644
rwrist 36.7367
rhand -28.5124 1.32638
rfingers 7.12502
rthumb -1.88082 -28.6451
lclavicle -9.30312e-014 5.74488e-014
lhumerus -45.7605 30.3935 33.1425
lradius 28.1749
lwrist 6.13818
lhand -26.0776 30.6728
lfingers 7.12502
lthumb 0.470806 60.6521
rfemur -20.0051 -16.7982 22.1323
rtibia 32.1313
rfoot -34.6727 -21.4826
rtoes 6.6204
lfemur -45.7234 -19.2209 -3.61165
ltibia 37.4316
lfoot -9.72155 -22.6693
ltoes -6.51392
4220
root -2.77077 17.43 0.783512 13.5354 48.7944 -6.113
lowerback 10.972 8.59078 1.24714
upperback 3.15768 11.4427 -3.16835
thorax -1.84581 5.73991 -5.30862
lowerneck -12.3716 -13.4351 -18.1054
upperneck 20.8996 -15.7003 5.65701
head 10.6994 -8.03256 2.61214
rclavicle 1.64991e-014 -9.14409e-015
rhumerus 54.8498 13.5627 -52.3164
rradius 32.715
rwrist 36.9462
rhand -28.5727 1.35553
rfingers 7.12502
rthumb -1.93899 -28.6154
lclavicle 1.64991e-014 -9.14409e-015
lhumerus -46.4185 30.8001 32.6945
lradius 28.1179
lwrist 6.0174
lhand -25.7091 31.3942
lfingers 7.12502
lthumb 0.826699 61.3724
rfemur -20.2855 -16.8575 22.1474
rtibia 32.0626
rfoot -34.7982 -21.5459
rtoes 6.62637
lfemur -46.0405 -19.0905 -3.66709
ltibia 37.3173
lfoot -9.41197 -22.7986
ltoes -5.97515
4221
root -2.76205 17.4358 0.785957 13.9054 48.9415 -6.03954
lowerback 10.942 8.65915 1.29703
upperback 3.2224 11.5385 -3.27808
thorax -1.71925 5.79444 -5.44212
lowerneck -12.5451 -13.3758 -18.1938
upperneck 21.1464 -15.559 5.63666
head 10.8122 -7.97268 2.62888
rclavicle 3.76697e-014 2.20651e-014
rhumerus 55.2538 13.5098 -52.2467
rradius 32.6485
rwrist 37.2045
rhand -28.6352 1.33566
rfingers 7.12502
rthumb -1.99937 -28.6347
lclavicle 3.76697e-014 2.20651e-014
lhumerus -46.7826 30.8572 32.5026
lradius 28.053
lwrist 6.24924
lhand -25.5943 31.7812
lfingers 7.12502
lthumb 0.937538 61.7589
rfemur -20.5665 -16.9626 22.2016
rtibia 31.9801
rfoot -34.7719 -21.6146
rtoes 6.40841
lfemur -46.3246 -18.9064 -3.71189
ltibia 37.2191
lfoot -9.23609 -22.9325
ltoes -5.6404
4222
root -2.75318 17.4417 0.791861 14.2046 49.0574 -5.99057
lowerback 10.9651 8.80588 1.34288
upperback 3.2983 11.7372 -3.40283
thorax -1.59592 5.90093 -5.60585
lowerneck -12.5074 -13.358 -18.4681
upperneck 21.3637 -15.5356 5.86771
head 10.9302 -7.95972 2.75096
rclavicle 1.08536e-013 -2.70347e-014
rhumerus 55.5652 13.372 -52.0076
rradius 32.6016
rwrist 37.3145
rhand -28.7355 1.44207
rfingers 7.12502
rthumb -2.09622 -28.5274
lclavicle 1.08536e-013 -2.70347e-014
lhumerus -47.0196 31.0013 32.242
lradius 27.903
lwrist 6.33202
lhand -25.5519 31.8219
lfingers 7.12502
lthumb 0.978501 61.7994
rfemur -20.7633 -16.9693 22.2432
rtibia 31.8969
rfoot -34.8822 -21.5105
rtoes 6.68551
lfemur -46.519 -18.6456 -3.81148
ltibia 37.1464
lfoot -9.09817 -23.1445
ltoes -5.21014
4223
root -2.7455 17.4455 0.796882 14.3708 49.2134 -6.02792
lowerback 11.0475 8.91565 1.43263
upperback 3.43151 11.8938 -3.48814
thorax -1.44717 5.98834 -5.75213
lowerneck -12.5488 -13.3829 -18.7188
upperneck 21.5524 -15.5569 6.07544
head 11.0542 -7.96577 2.84937
rclavicle -5.12864e-014 3.29983e-014
rhumerus 55.9709 13.2849 -51.7359
rradius 32.5852
rwrist 37.2746
rhand -28.7698 1.36047
rfingers 7.12502
rthumb -2.12939 -28.6086
lclavicle -5.12864e-014 3.29983e-014
lhumerus -47.4496 31.4547 31.7309
lradius 27.7591
lwrist 6.2724
lhand -25.467 31.904
lfingers 7.12502
lthumb 1.06051 61.8811
rfemur -20.8823 -16.998 22.3297
rtibia 31.8395
rfoot -35.1765 -21.2481
rtoes 7.59686
lfemur -46.6613 -18.3942 -3.88471
ltibia 37.0824
lfoot -9.19681 -23.2801
ltoes -5.44295
4224
root -2.73735 17.4471 0.79927 14.614 49.331 -5.95823
lowerback 11.0741 9.04912 1.56005
upperback 3.60962 12.0879 -3.66671
thorax -1.18706 6.10193 -5.99973
lowerneck -12.4991 -13.3656 -18.1139
upperneck 21.4572 -15.5807 5.72239
head 10.9225 -7.96714 2.6434
rclavicle -4.75095e-014 4.94974e-014
rhumerus 56.3269 13.0126 -51.6549
rradius 32.5555
rwrist 37.3283
rhand -28.7886 1.32253
rfingers 7.12502
rthumb -2.14757 -28.6464
lclavicle -4.75095e-014 4.94974e-014
lhumerus -47.6933 31.7187 31.3642
lradius 27.6381
lwrist 6.49918
lhand -25.4712 31.8567
lfingers 7.12502
lthumb 1.05644 61.8338
rfemur -21.024 -17.1607 22.3408
rtibia 31.816
rfoot -35.3222 -20.9742
rtoes 8.1991
lfemur -46.8124 -18.1408 -4.04861
ltibia 37.0188
lfoot -9.35303 -23.3542
ltoes -6.1626
4225
root -2.72953 17.4471 0.800509 15.0643 49.4046 -5.67157
lowerback 11.0843 9.19518 1.52611
upperback 3.78113 12.2817 -3.85231
thorax -0.954839 6.21355 -6.16858
lowerneck -12.4877 -13.3501 -17.5768
upperneck 21.3787 -15.5594 5.27945
head 10.7981 -7.96109 2.42187
rclavicle -5.34731e-014 -1.80894e-014
rhumerus 56.6917 12.8219 -51.4639
rradius 32.5823
rwrist 37.2726
rhand -28.7348 1.20032
rfingers 7.12502
rthumb -2.09561 -28.7691
lclavicle -5.34731e-014 -1.80894e-014
lhumerus -47.9895 31.9018 31.0723
lradius 27.478
lwrist 6.62284
lhand -25.2615 31.8986
lfingers 7.12502
lthumb 1.25899 61.8746
rfemur -21.2598 -17.3234 22.2039
rtibia 31.8261
rfoot -35.3114 -20.8188
rtoes 8.41923
lfemur -47.0052 -17.8567 -4.37303
ltibia 36.9508
lfoot -9.30535 -23.5297
ltoes -6.36105
4226
root -2.7228 17.4469 0.803231 15.432 49.4686 -5.50023
lowerback 11.1319 9.31804 1.41347
upperback 3.91209 12.4346 -3.91129
thorax -0.834934 6.29629 -6.17664
lowerneck -12.6051 -13.3352 -17.6311
upperneck 21.5917 -15.4729 5.17449
head 10.8854 -7.93262 2.39749
rclavicle 1.10524e-013 -1.55052e-014
rhumerus 57.1604 12.8527 -51.1763
rradius 32.5564
rwrist 37.3163
rhand -28.6584 0.956057
rfingers 7.12502
rthumb -2.02182 -29.0141
lclavicle 1.10524e-013 -1.55052e-014
lhumerus -48.6538 32.178 30.6298
lradius 27.3391
lwrist 6.49296
lhand -24.9773 32.13
lfingers 7.12502
lthumb 1.53348 62.1043
rfemur -21.4903 -17.2381 22.1298
rtibia 31.8418
rfoot -35.5727 -20.6864
rtoes 9.0525
lfemur -47.1757 -17.5447 -4.59922
ltibia 36.8823
lfoot -9.2111 -23.7583
ltoes -6.31658
4227
root -2.71673 17.4484 0.806367 15.5723 49.4914 -5.59804
lowerback 11.2492 9.4875 1.47058
upperback 3.99187 12.6646 -3.93723
thorax -0.768335 6.41621 -6.2629
lowerneck -12.7305 -13.2539 -17.7924
upperneck 21.9734 -15.3092 5.22356
head 11.0519 -7.86225 2.45367
rclavicle -1.17283e-014 6.83819e-014
rhumerus 57.5369 12.7907 -51.0561
rradius 32.3985
rwrist 37.639
rhand -28.6992 1.0796
rfingers 7.12502
rthumb -2.06125 -28.8902
lclavicle -1.17283e-014 6.83819e-014
lhumerus -49.3762 32.4881 30.0627
lradius 27.1994
lwrist 6.39846
lhand -24.8344 32.3485
lfingers 7.12502
lthumb 1.67149 62.3217
rfemur -21.7179 -17.2023 22.258
rtibia 31.8775
rfoot -35.7365 -20.48
rtoes 9.64298
lfemur -47.2992 -17.2062 -4.62723
ltibia 36.7891
lfoot -9.14549 -23.9821
ltoes -6.36503
4228
root -2.71124 17.452 0.808801 15.7082 49.4538 -5.63069
lowerback 11.494 9.73954 1.59834
upperback 4.05244 13.009 -4.08101
thorax -0.73058 6.59693 -6.54062
lowerneck -12.7273 -13.2411 -17.987
upperneck 22.2819 -15.3118 5.47905
head 11.209 -7.85172 2.56647
rclavicle -1.26029e-013 9.93923e-015
rhumerus 57.7036 12.5325 -50.884
rradius 32.326
rwrist 37.626
rhand -28.6448 1.38631
rfingers 7.12502
rthumb -2.00861 -28.584
lclavicle -1.26029e-013 9.93923e-015
lhumerus -49.759 32.5475 29.6354
lradius 27.0039
lwrist 6.40112
lhand -25.0798 32.4172
lfingers 7.12502
lthumb 1.43449 62.3921
rfemur -21.9096 -17.2272 22.3164
rtibia 31.9346
rfoot -35.7813 -20.2511
rtoes 9.90186
lfemur -47.3704 -16.9181 -4.70613
ltibia 36.6874
lfoot -9.03476 -24.1541
ltoes -6.29154
4229
root -2.70562 17.4545 0.814289 16.2282 49.3342 -5.26099
lowerback 11.653 9.97471 1.38727
upperback 4.11556 13.2938 -4.3068
thorax -0.704404 6.74502 -6.70929
lowerneck -12.7018 -13.2111 -17.9668
upperneck 22.445 -15.2991 5.56954
head 11.2703 -7.83484 2.59846
rclavicle -7.55382e-014 5.1684e-015
rhumerus 57.9705 12.3599 -50.5362
rradius 32.3348
rwrist 37.3797
rhand -28.5818 1.40936
rfingers 7.12502
rthumb -1.94779 -28.5615
lclavicle -7.55382e-014 5.1684e-015
lhumerus -50.2631 32.6817 29.0821
lradius 26.7783
lwrist 6.18768
lhand -25.4425 32.5427
lfingers 7.12502
lthumb 1.08419 62.5197
rfemur -22.2001 -17.1786 22.1
rtibia 32.0115
rfoot -35.8465 -20.1667
rtoes 9.59938
lfemur -47.5126 -16.7007 -5.02772
ltibia 36.5795
lfoot -8.91296 -24.1666
ltoes -6.261
4230
root -2.69888 17.4556 0.819983 16.9842 49.1954 -4.82087
lowerback 11.6214 10.1633 1.01856
upperback 4.12226 13.4995 -4.53279
thorax -0.681752 6.84914 -6.7621
lowerneck -12.7863 -13.1258 -17.7768
upperneck 22.6376 -15.1647 5.42057
head 11.3112 -7.77207 2.53796
rclavicle -1.75726e-013 6.55989e-014
rhumerus 58.3728 12.3473 -50.3818
rradius 32.2315
rwrist 37.4532
rhand -28.6959 1.47897
rfingers 7.12502
rthumb -2.05806 -28.4908
lclavicle -1.75726e-013 6.55989e-014
lhumerus -51.0419 32.7065 28.504
lradius 26.725
lwrist 6.31164
lhand -25.4781 33.076
lfingers 7.12502
lthumb 1.04985 63.0532
rfemur -22.7112 -17.0552 21.8793
rtibia 32.0986
rfoot -35.9622 -20.1245
rtoes 9.58837
lfemur -47.8596 -16.4993 -5.31774
ltibia 36.4802
lfoot -8.77307 -24.0602
ltoes -6.34051
4231
root -2.69125 17.4563 0.820596 17.3672 49.0653 -4.72355
lowerback 11.7249 10.3696 0.988623
upperback 4.13862 13.7655 -4.75745
thorax -0.634632 6.99045 -7.01512
lowerneck -12.8298 -13.1041 -17.4435
upperneck 22.7787 -15.1442 5.21053
head 11.3203 -7.7567 2.41738
rclavicle 9.58142e-014 -4.21423e-014
rhumerus 58.6645 12.2717 -50.3417
rradius 32.1764
rwrist 37.581
rhand -28.659 1.39181
rfingers 7.12502
rthumb -2.02238 -28.5784
lclavicle 9.58142e-014 -4.21423e-014
lhumerus -51.7051 32.7294 27.9763
lradius 26.7021
lwrist 6.77898
lhand -25.2961 33.5942
lfingers 7.12502
lthumb 1.22556 63.5704
rfemur -23.1124 -16.9993 21.8644
rtibia 32.2108
rfoot -35.9659 -19.99
rtoes 9.8878
lfemur -48.0738 -16.2531 -5.42295
ltibia 36.394
lfoot -8.71804 -23.9761
ltoes -6.4354
